Normalized EMG Linear Envelopes
nRows=142
nColumns=4

endheader
time	 med_gas_r	  soleus_r	 tib_ant_r	
3.1248	  0.086872	  0.108832	  0.010826	
3.1873	  0.085588	  0.110926	  0.010896	
3.24979	  0.085217	  0.114572	  0.010954	
3.31229	  0.087045	  0.118067	  0.010943	
3.37478	  0.091002	  0.118479	  0.010661	
3.43728	  0.094820	  0.117329	  0.010353	
3.49978	  0.095638	  0.117632	  0.010314	
3.56227	  0.092394	  0.119480	  0.010582	
3.62477	  0.087391	  0.121536	  0.011028	
3.68726	  0.083922	  0.122822	  0.011344	
3.74976	  0.082552	  0.126515	  0.011210	
3.81226	  0.083429	  0.134089	  0.010810	
3.87475	  0.087311	  0.142177	  0.010570	
3.93725	  0.095735	  0.142316	  0.010764	
3.99974	  0.109699	  0.136742	  0.011312	
4.06224	  0.126043	  0.132394	  0.012285	
4.12474	  0.143314	  0.133049	  0.013926	
4.18723	  0.166155	  0.141309	  0.015939	
4.24973	  0.195736	  0.161090	  0.017846	
4.31222	  0.234598	  0.190094	  0.019774	
4.37472	  0.273269	  0.225480	  0.023385	
4.43722	  0.304430	  0.257025	  0.030160	
4.49971	  0.349051	  0.270556	  0.040837	
4.56221	  0.405092	  0.274281	  0.056145	
4.6247	  0.439394	  0.273444	  0.072566	
4.6872	  0.447172	  0.276674	  0.086201	
4.7497	  0.458993	  0.288053	  0.099111	
4.81219	  0.468934	  0.309381	  0.103325	
4.87469	  0.469070	  0.339657	  0.103182	
4.93718	  0.473795	  0.385584	  0.108003	
4.99968	  0.499570	  0.438488	  0.120127	
5.06218	  0.522250	  0.491409	  0.142307	
5.12467	  0.548077	  0.530943	  0.169213	
5.18717	  0.577056	  0.556203	  0.198804	
5.24966	  0.588131	  0.563163	  0.230478	
5.31216	  0.602659	  0.546160	  0.263085	
5.37466	  0.613946	  0.530408	  0.283918	
5.43715	  0.638799	  0.533364	  0.292534	
5.49965	  0.652838	  0.554991	  0.298346	
5.56214	  0.672112	  0.585515	  0.307326	
5.62464	  0.689263	  0.618774	  0.324003	
5.68714	  0.698973	  0.657008	  0.353786	
5.74963	  0.694345	  0.689505	  0.380184	
5.81213	  0.676913	  0.694199	  0.399686	
5.87462	  0.652298	  0.680519	  0.414839	
5.93712	  0.629828	  0.669681	  0.429207	
5.99962	  0.605698	  0.663503	  0.449841	
6.06211	  0.591625	  0.663776	  0.484084	
6.12461	  0.585644	  0.674158	  0.524301	
6.1871	  0.576499	  0.692288	  0.549705	
6.2496	  0.581756	  0.720426	  0.552264	
6.3121	  0.593344	  0.759637	  0.552921	
6.37459	  0.618666	  0.787088	  0.566395	
6.43709	  0.651714	  0.788786	  0.581742	
6.49958	  0.690970	  0.769586	  0.588099	
6.56208	  0.724892	  0.730610	  0.578549	
6.62458	  0.753570	  0.677793	  0.567199	
6.68707	  0.766748	  0.613452	  0.570629	
6.74957	  0.772681	  0.561732	  0.581606	
6.81206	  0.772158	  0.550086	  0.583499	
6.87456	  0.768985	  0.568582	  0.580120	
6.93706	  0.757249	  0.603808	  0.573169	
6.99955	  0.737897	  0.646503	  0.574216	
7.06205	  0.702720	  0.689129	  0.591876	
7.12454	  0.680982	  0.717631	  0.615700	
7.18704	  0.660252	  0.718763	  0.630882	
7.24954	  0.657347	  0.703411	  0.634059	
7.31203	  0.677434	  0.689897	  0.651569	
7.37453	  0.734459	  0.670942	  0.677446	
7.43702	  0.788217	  0.663345	  0.683552	
7.49952	  0.831028	  0.685749	  0.661629	
7.56202	  0.847187	  0.727969	  0.634999	
7.62451	  0.841880	  0.775832	  0.623288	
7.68701	  0.809036	  0.796846	  0.636837	
7.7495	  0.777528	  0.781560	  0.674212	
7.812	  0.760052	  0.748173	  0.728227	
7.8745	  0.757433	  0.712597	  0.785078	
7.93699	  0.750629	  0.697500	  0.830274	
7.99949	  0.732695	  0.709654	  0.839549	
8.06198	  0.711346	  0.736813	  0.805050	
8.12448	  0.710195	  0.750050	  0.758522	
8.18698	  0.729580	  0.735681	  0.726228	
8.24947	  0.766930	  0.702318	  0.712847	
8.31197	  0.788953	  0.664765	  0.727065	
8.37446	  0.784658	  0.645397	  0.768703	
8.43696	  0.769478	  0.648091	  0.829242	
8.49946	  0.763582	  0.660110	  0.879471	
8.56195	  0.764719	  0.661749	  0.889449	
8.62445	  0.767552	  0.659384	  0.858305	
8.68694	  0.748739	  0.651356	  0.825573	
8.74944	  0.716024	  0.647176	  0.809279	
8.81194	  0.672902	  0.662021	  0.803363	
8.87443	  0.635465	  0.688674	  0.782662	
8.93693	  0.605529	  0.704748	  0.754872	
8.99942	  0.600972	  0.696699	  0.743217	
9.06192	  0.625730	  0.680476	  0.751412	
9.12442	  0.647903	  0.666427	  0.772095	
9.18691	  0.664316	  0.670434	  0.786644	
9.24941	  0.660559	  0.693753	  0.788166	
9.3119	  0.653334	  0.724078	  0.787800	
9.3744	  0.638257	  0.726427	  0.804525	
9.4369	  0.614523	  0.698906	  0.823655	
9.49939	  0.607388	  0.669009	  0.828566	
9.56189	  0.607483	  0.651441	  0.816607	
9.62438	  0.607047	  0.642634	  0.779395	
9.68688	  0.606915	  0.601483	  0.728781	
9.74938	  0.601185	  0.531452	  0.683999	
9.81187	  0.602857	  0.466098	  0.652125	
9.87437	  0.606675	  0.431789	  0.635377	
9.93686	  0.586451	  0.427056	  0.635172	
9.99936	  0.549747	  0.439979	  0.633432	
10.0619	  0.505872	  0.455498	  0.637950	
10.1244	  0.484406	  0.450946	  0.651400	
10.1868	  0.487072	  0.434475	  0.670884	
10.2493	  0.486305	  0.418680	  0.690371	
10.3118	  0.474697	  0.397817	  0.705490	
10.3743	  0.466188	  0.371347	  0.705582	
10.4368	  0.476329	  0.348590	  0.684110	
10.4993	  0.491154	  0.332279	  0.645205	
10.5618	  0.516882	  0.319170	  0.595483	
10.6243	  0.509247	  0.311678	  0.561433	
10.6868	  0.473998	  0.307650	  0.535973	
10.7493	  0.449457	  0.298416	  0.501803	
10.8118	  0.403892	  0.281495	  0.449192	
10.8743	  0.347232	  0.254249	  0.384553	
10.9368	  0.333720	  0.226427	  0.314833	
10.9993	  0.349922	  0.209345	  0.250223	
11.0618	  0.337061	  0.197820	  0.206449	
11.1243	  0.317942	  0.194215	  0.184510	
11.1868	  0.316654	  0.196694	  0.170937	
11.2493	  0.299840	  0.195099	  0.158199	
11.3118	  0.280804	  0.185943	  0.148241	
11.3743	  0.291003	  0.177993	  0.135723	
11.4368	  0.306859	  0.172371	  0.119370	
11.4993	  0.294780	  0.169066	  0.106630	
11.5618	  0.290443	  0.167756	  0.098401	
11.6243	  0.310050	  0.164371	  0.095532	
11.6868	  0.321924	  0.157508	  0.099256	
11.7492	  0.309317	  0.150017	  0.104026	
11.8117	  0.305174	  0.144288	  0.105687	
11.8742	  0.294572	  0.141324	  0.105132	
11.9367	  0.269932	  0.141213	  0.100442	
